<svg width="40" height="40" viewBox="0 0 40 40" fill="none" xmlns="http://www.w3.org/2000/svg">
    <g clip-path="url(#clip0_29_239)">
        <path d="M20.5938 8.12957C20.2517 7.83441 19.7483 7.83441 19.4063 8.12957L5.70498 19.9472C5.50526 20.1191 5.38989 20.3709 5.38989 20.6365V37.7267C5.38989 38.2302 5.79691 38.6364 6.2988 38.6364H33.7014C34.2031 38.6364 34.6103 38.2301 34.6103 37.7267V20.6365C34.6103 20.3708 34.4949 20.119 34.2952 19.9472L20.5938 8.12957ZM32.7918 36.8187H7.20841V21.0514L20.0001 10.0167L32.7918 21.0514V36.8187Z" fill="#19BCE4"/>
        <path d="M39.3668 17.4384L21.1855 1.8031C20.5033 1.21798 19.4963 1.21798 18.814 1.8031L0.632614 17.4384C-0.128646 18.0929 -0.215383 19.2405 0.439071 20.0026C1.09535 20.763 2.24285 20.8499 3.00327 20.1953L19.9997 5.57909L36.9961 20.1953C37.3399 20.4906 37.7609 20.6364 38.1801 20.6364C38.6923 20.6364 39.2009 20.4211 39.5603 20.0026C40.2149 19.2405 40.1281 18.0929 39.3668 17.4384Z" fill="#19BCE4"/>
        <path d="M15.5893 18.3584C13.3567 18.3584 10.8445 19.5789 10.4904 23.0008C9.78024 29.8635 19.3775 35.0059 19.7855 35.2229C19.8523 35.2576 19.9253 35.275 19.9982 35.275C20.0703 35.275 20.144 35.2576 20.2109 35.2229C20.6189 35.0059 30.2161 29.8635 29.5077 23.0008C29.1545 19.5789 26.6415 18.3584 24.408 18.3584C22.8255 18.3584 21.2074 18.9191 19.9983 19.8705C18.7889 18.9191 17.1701 18.3584 15.5893 18.3584Z" fill="#19BCE4"/>
    </g>
    <defs>
        <clipPath id="clip0_29_239">
            <rect width="40" height="40" fill="white"/>
        </clipPath>
    </defs>
</svg>
