<svg width="20" height="20" viewBox="0 0 20 20" fill="none" xmlns="http://www.w3.org/2000/svg">
    <path d="M7.50002 18.3333C7.96026 18.3333 8.33335 17.9602 8.33335 17.5C8.33335 17.0397 7.96026 16.6666 7.50002 16.6666C7.03978 16.6666 6.66669 17.0397 6.66669 17.5C6.66669 17.9602 7.03978 18.3333 7.50002 18.3333Z" stroke="black" stroke-width="2" stroke-linecap="round" stroke-linejoin="round"/>
    <path d="M16.6666 18.3333C17.1269 18.3333 17.5 17.9602 17.5 17.5C17.5 17.0397 17.1269 16.6666 16.6666 16.6666C16.2064 16.6666 15.8333 17.0397 15.8333 17.5C15.8333 17.9602 16.2064 18.3333 16.6666 18.3333Z" stroke="black" stroke-width="2" stroke-linecap="round" stroke-linejoin="round"/>
    <path d="M0.833313 0.833374H4.16665L6.39998 11.9917C6.47618 12.3754 6.6849 12.72 6.9896 12.9653C7.2943 13.2106 7.67556 13.3409 8.06665 13.3334H16.1666C16.5577 13.3409 16.939 13.2106 17.2437 12.9653C17.5484 12.72 17.7571 12.3754 17.8333 11.9917L19.1666 5.00004H4.99998" stroke="black" stroke-width="2" stroke-linecap="round" stroke-linejoin="round"/>
</svg>
